<svg id="Layer_1" data-name="Layer 1" xmlns="http://www.w3.org/2000/svg" viewBox="0 0 269.47 95.08"><defs><style>.cls-1{fill:#0194fe;}</style></defs><circle class="cls-1" cx="256.48" cy="10.92" r="8.9" transform="translate(4.35 59.22) rotate(-13.28)"/><circle class="cls-1" cx="216.76" cy="10.92" r="8.9" transform="translate(55.76 156.47) rotate(-45)"/><circle class="cls-1" cx="147.37" cy="10.92" r="8.9"/><path class="cls-1" d="M31.69,75.22a8.93,8.93,0,0,0-8.92,8.92h0a8.92,8.92,0,1,0,8.92-8.92Z"/><path class="cls-1" d="M49.21,75.22a8.93,8.93,0,0,0-7.09,3.5,8.86,8.86,0,0,1,0,10.84,8.92,8.92,0,1,0,7.09-14.34Z"/><path class="cls-1" d="M117.78,2h-8.31a2.68,2.68,0,0,0-2.69,2.69V54.82a1.8,1.8,0,0,1-1.8,1.79H96.53a1.79,1.79,0,0,1-1.79-1.79V28.68A2.91,2.91,0,0,0,92,25.77H72.38c-10,0-14.29,5.24-14.29,16.51V56.61H28.62c-6-.06-10.89-5.79-10.89-11.76A11,11,0,0,1,28.62,33.91l7.8,0a2.69,2.69,0,0,0,2.68-2.69V23a2.68,2.68,0,0,0-2.69-2.69H28.68a24.49,24.49,0,1,0-.13,49H71.68V44c0-3.31,2-5.62,4.3-5.62h3.34c1.21,0,1.58.89,1.58,2.1V65.82a3.4,3.4,0,0,0,3.4,3.4h32.77a3.41,3.41,0,0,0,3.41-3.4V4.71A2.69,2.69,0,0,0,117.78,2Z"/><path class="cls-1" d="M261.89,29.63h-9.4a2.12,2.12,0,0,0-2.12,2.14v14a10.89,10.89,0,0,1-10.84,10.81h-3.92a21.11,21.11,0,0,0,2.63-10.67c0-11.52-9.4-20.17-20.69-20.17a20.23,20.23,0,0,0-20.07,20.17,14.19,14.19,0,0,0,5,10.67H167.15V42.38c0-5.17-1.63-8.79-4.58-11.73s-7.8-4.88-13.27-4.88H136.8a3.36,3.36,0,0,0-2.63,1.17,3.79,3.79,0,0,0-1,2.6v5.55a3.25,3.25,0,0,0,1.16,2.38,3.39,3.39,0,0,0,2.55.92h10.13c3.94,0,6.45,1.48,6.45,7.49V56.61H132.39a8.16,8.16,0,0,0-1.14.08h0a3.48,3.48,0,0,0-2.42,1,1.49,1.49,0,0,0-.17.18.44.44,0,0,0-.09.11,2.69,2.69,0,0,0-.3.37c-.06.09-.1.2-.16.29a3.11,3.11,0,0,0-.27.68c0,.09-.06.17-.08.26s0,.23,0,.35a2.4,2.4,0,0,0,0,.37v5.25a3.61,3.61,0,0,0,3.61,3.61l73.44.09a37.12,37.12,0,0,0,13.21-2.12c5.08,1.47,7.44,2.12,12.73,2.12h8.91C253.09,69.14,264,59.33,264,45.8v-14A2.14,2.14,0,0,0,261.89,29.63ZM218,53.23A6.2,6.2,0,0,1,211.63,47,6.28,6.28,0,0,1,218,40.77,6.06,6.06,0,0,1,224.21,47,5.94,5.94,0,0,1,218,53.23Z"/></svg>